<mxfile host="65bd71144e">
    <diagram id="d8U5ogH2gJc6pIqDEH-P" name="Page-1">
        <mxGraphModel dx="565" dy="314" grid="1" gridSize="10" guides="1" tooltips="1" connect="1" arrows="1" fold="1" page="1" pageScale="1" pageWidth="850" pageHeight="1100" background="none" math="0" shadow="1">
            <root>
                <mxCell id="0"/>
                <mxCell id="1" parent="0"/>
                <mxCell id="11" value="" style="edgeStyle=none;html=1;" edge="1" parent="1" source="2" target="10">
                    <mxGeometry relative="1" as="geometry"/>
                </mxCell>
                <mxCell id="12" value="Flow" style="edgeLabel;html=1;align=center;verticalAlign=middle;resizable=0;points=[];rounded=1;" vertex="1" connectable="0" parent="11">
                    <mxGeometry x="0.3423" relative="1" as="geometry">
                        <mxPoint x="-17" as="offset"/>
                    </mxGeometry>
                </mxCell>
                <mxCell id="2" value="User" style="shape=umlActor;verticalLabelPosition=bottom;verticalAlign=top;html=1;outlineConnect=0;rounded=1;" vertex="1" parent="1">
                    <mxGeometry x="20" y="20" width="30" height="60" as="geometry"/>
                </mxCell>
                <mxCell id="14" value="" style="edgeStyle=none;html=1;" edge="1" parent="1" source="10" target="13">
                    <mxGeometry relative="1" as="geometry"/>
                </mxCell>
                <mxCell id="15" value="Flow" style="edgeLabel;html=1;align=center;verticalAlign=middle;resizable=0;points=[];rounded=1;" vertex="1" connectable="0" parent="14">
                    <mxGeometry x="0.2521" y="2" relative="1" as="geometry">
                        <mxPoint x="-17" y="2" as="offset"/>
                    </mxGeometry>
                </mxCell>
                <mxCell id="10" value="Process" style="ellipse;whiteSpace=wrap;html=1;verticalAlign=middle;rounded=1;" vertex="1" parent="1">
                    <mxGeometry x="180" y="10" width="80" height="80" as="geometry"/>
                </mxCell>
                <mxCell id="13" value="Store" style="whiteSpace=wrap;html=1;rounded=1;" vertex="1" parent="1">
                    <mxGeometry x="380" y="20" width="120" height="60" as="geometry"/>
                </mxCell>
            </root>
        </mxGraphModel>
    </diagram>
</mxfile>